Jump_normalized_pl13_filtered_grf
version=1
nRows=17
nColumns=37
inDegrees=yes
endheader
time		1_ground_force_vx		1_ground_force_vy		1_ground_force_vz		1_ground_force_px		1_ground_force_py		1_ground_force_pz		1_ground_torque_x		1_ground_torque_y		1_ground_torque_z		2_ground_force_vx		2_ground_force_vy		2_ground_force_vz		2_ground_force_px		2_ground_force_py		2_ground_force_pz		2_ground_torque_x		2_ground_torque_y		2_ground_torque_z		3_ground_force_vx		3_ground_force_vy		3_ground_force_vz		3_ground_force_px		3_ground_force_py		3_ground_force_pz		3_ground_torque_x		3_ground_torque_y		3_ground_torque_z		4_ground_force_vx		4_ground_force_vy		4_ground_force_vz		4_ground_force_px		4_ground_force_py		4_ground_force_pz		4_ground_torque_x		4_ground_torque_y		4_ground_torque_z		
0.869500		0.000000		-0.000000		-0.000000		0.163167		0.000000		0.201347		-0.000000		-0.000000		0.000000		0.000000		0.000000		-0.000000		-0.130545		0.000000		0.244507		0.000000		-0.000000		0.000000		3.362739		317.990210		204.050127		0.375203		1.309634		1.914607		-0.143702		-13.588917		-8.719829		-25.422168		342.574629		225.970610		-0.265921		1.308975		1.926365		-1.250558		16.851810		11.115866		
0.872657		-0.000000		0.000000		0.000000		0.163167		0.000000		0.201347		0.000000		0.000000		-0.000000		0.000000		0.000000		0.000000		-0.130545		0.000000		0.244507		0.000000		-0.000000		0.000000		2.789466		318.405263		206.139303		0.375180		1.309697		1.914627		-0.119190		-13.605044		-8.808065		-25.642981		342.302608		226.423742		-0.265930		1.308973		1.926402		-1.262991		16.859391		11.152022		
0.875813		-0.000000		0.000000		0.000000		0.163167		0.000000		0.201347		0.000000		0.000000		-0.000000		0.000000		0.000000		0.000000		-0.130545		0.000000		0.244507		0.000000		-0.000000		0.000000		2.389321		318.700432		208.080757		0.375206		1.309740		1.914619		-0.102046		-13.611345		-8.886901		-25.862760		342.234334		227.004824		-0.265934		1.308969		1.926439		-1.274918		16.870621		11.190322		
0.878970		-0.000000		0.000000		0.000000		0.163167		0.000000		0.201347		0.000000		0.000000		-0.000000		-0.000000		0.000000		0.000000		-0.130545		0.000000		0.244507		0.000000		-0.000000		0.000000		2.131017		318.864015		209.851716		0.375265		1.309766		1.914600		-0.090954		-13.609474		-8.956707		-26.054848		342.341742		227.728000		-0.265935		1.308966		1.926474		-1.285208		16.886693		11.233140		
0.882126		-0.000000		0.000000		0.000000		0.163167		0.000000		0.201347		0.000000		0.000000		-0.000000		-0.000000		0.000000		0.000000		-0.130545		0.000000		0.244507		0.000000		-0.000000		0.000000		1.972356		318.896309		211.447043		0.375341		1.309777		1.914580		-0.084134		-13.602925		-9.019540		-26.173052		342.614083		228.598874		-0.265937		1.308962		1.926509		-1.291799		16.910076		11.282736		
0.885283		-0.000000		0.000000		0.000000		0.163167		0.000000		0.201347		0.000000		0.000000		-0.000000		-0.000000		0.000000		0.000000		-0.130545		0.000000		0.244507		0.000000		-0.000000		0.000000		1.854556		318.816824		212.885169		0.375410		1.309779		1.914568		-0.079086		-13.595728		-9.078344		-26.168812		343.070427		229.614631		-0.265941		1.308957		1.926543		-1.292415		16.943431		11.340120		
0.888439		0.000000		-0.000000		-0.000000		0.163167		0.000000		0.201347		-0.000000		-0.000000		0.000000		-0.000000		-0.000000		-0.000000		-0.130545		0.000000		0.244507		-0.000000		0.000000		-0.000000		1.705014		318.659497		214.217529		0.375450		1.309777		1.914573		-0.072720		-13.591123		-9.136576		-26.010829		343.761288		230.764382		-0.265947		1.308953		1.926575		-1.285436		16.988421		11.404200		
0.891596		0.000000		-0.000000		-0.000000		0.163167		0.000000		0.201347		-0.000000		-0.000000		0.000000		-0.000000		-0.000000		-0.000000		-0.130545		0.000000		0.244507		-0.000000		0.000000		-0.000000		1.458874		318.479516		215.520731		0.375450		1.309771		1.914595		-0.062259		-13.591582		-9.197665		-25.694223		344.749657		232.034764		-0.265954		1.308950		1.926606		-1.270357		17.044888		11.472112		
0.894753		0.000000		-0.000000		-0.000000		0.163167		0.000000		0.201347		-0.000000		-0.000000		0.000000		0.000000		-0.000000		-0.000000		-0.130545		0.000000		0.244507		-0.000000		0.000000		-0.000000		1.045199		318.351171		216.886606		0.375406		1.309752		1.914633		-0.044647		-13.598832		-9.264627		-25.237232		346.078850		233.416058		-0.265961		1.308947		1.926632		-1.247778		17.110816		11.540546		
0.897909		0.000000		-0.000000		-0.000000		0.163167		0.000000		0.201347		-0.000000		-0.000000		0.000000		0.000000		-0.000000		-0.000000		-0.130545		0.000000		0.244507		-0.000000		0.000000		-0.000000		0.372473		318.345536		218.418004		0.375318		1.309708		1.914688		-0.015927		-13.613272		-9.340115		-24.672013		347.751872		234.908847		-0.265962		1.308943		1.926652		-1.219112		17.183374		11.607490		
0.901066		0.000000		-0.000000		-0.000000		0.163167		0.000000		0.201347		-0.000000		-0.000000		0.000000		0.000000		-0.000000		-0.000000		-0.130545		0.000000		0.244507		-0.000000		0.000000		-0.000000		-0.578900		318.559889		220.151680		0.375201		1.309633		1.914754		0.024780		-13.635657		-9.423386		-24.038734		349.731570		236.528836		-0.265958		1.308937		1.926665		-1.186364		17.260024		11.673219		
0.904222		-0.000000		0.000000		0.000000		0.163167		0.000000		0.201347		0.000000		0.000000		-0.000000		0.000000		0.000000		0.000000		-0.130545		0.000000		0.244507		0.000000		-0.000000		0.000000		-1.767816		319.096981		222.058370		0.375073		1.309531		1.914827		0.075716		-13.666949		-9.510777		-23.378361		351.960474		238.299112		-0.265950		1.308929		1.926673		-1.151752		17.339587		11.739977		
0.907379		-0.000000		0.000000		0.000000		0.163167		0.000000		0.201347		0.000000		0.000000		-0.000000		0.000000		0.000000		0.000000		-0.130545		0.000000		0.244507		0.000000		-0.000000		0.000000		-3.126698		320.027089		224.075589		0.374952		1.309413		1.914900		0.133926		-13.707741		-9.597844		-22.723750		354.393368		240.241064		-0.265939		1.308918		1.926680		-1.117169		17.423055		11.810981		
0.910535		-0.000000		0.000000		0.000000		0.163167		0.000000		0.201347		0.000000		0.000000		-0.000000		-0.000000		0.000000		0.000000		-0.130545		0.000000		0.244507		0.000000		-0.000000		0.000000		-4.535453		321.389712		226.110068		0.374857		1.309297		1.914967		0.194165		-13.758816		-9.679858		-22.091082		357.029237		242.368669		-0.265929		1.308908		1.926684		-1.083666		17.513865		11.889257		
0.913692		-0.000000		0.000000		0.000000		0.163167		0.000000		0.201347		0.000000		0.000000		-0.000000		-0.000000		0.000000		0.000000		-0.130545		0.000000		0.244507		0.000000		-0.000000		0.000000		-5.869010		323.161048		228.089236		0.374796		1.309199		1.915020		0.250982		-13.819679		-9.754022		-21.472154		359.923880		244.685923		-0.265922		1.308897		1.926690		-1.051016		17.617496		11.976847		
0.916848		-0.000000		0.000000		0.000000		0.163167		0.000000		0.201347		0.000000		0.000000		-0.000000		-0.000000		0.000000		0.000000		-0.130545		0.000000		0.244507		0.000000		-0.000000		0.000000		-7.019801		325.244613		229.989513		0.374768		1.309123		1.915053		0.299746		-13.887954		-9.820559		-20.843276		363.173956		247.190817		-0.265917		1.308886		1.926699		-1.018134		17.739989		12.074551		
0.920005		0.000000		-0.000000		-0.000000		0.163167		0.000000		0.201347		-0.000000		-0.000000		0.000000		-0.000000		-0.000000		-0.000000		-0.130545		0.000000		0.244507		-0.000000		0.000000		-0.000000		-7.894582		327.510445		231.823428		0.374769		1.309070		1.915065		1.113164		18.785741		-56.118283		-20.178070		366.891831		249.884909		-0.265918		1.308875		1.926709		-0.983716		17.886615		12.182324		
